# xmcd
#
# Track frame offsets: 
#        300
#        16255
#        26979
#        45742
#        57831
#        67684
#        87819
#        100166
#        107888
#        121956
#        140767
#        158164
#        178933
#        189211
#        205389
#        221233
#        235057
#
# Disc length: 3345 seconds
#
# Revision: 13
# Processed by: cddbd v1.5.2PL0 Copyright (c) Steve Scherf et al.
# Submitted via: ExactAudioCopy v1.0b3
#
DISCID=f00d0d11
DTITLE=Various Artist - I Am Sam
DYEAR=2001
DGENRE=Soundtrack
TTITLE0=Aimee Mann and Michael Penn - Two Of Us
TTITLE1=Sarah McLachlan - Blackbird
TTITLE2=Rufus Wainwright - Across The Universe
TTITLE3=The Wallflowers - I'm Looking Through You
TTITLE4=Eddie Vedder - You've Got To Hide Your Love Away
TTITLE5=Ben Harper - Strawberry Fields Forever
TTITLE6=Sheryl Crow - Mother Nature's Son
TTITLE7=Ben Folds - Golden Slumbers
TTITLE8=The Vines - I'm Only Sleeping
TTITLE9=Stereophonics - Don't Let Me Down
TTITLE10=The Black Crowes - Lucy In the Sky With Diamonds
TTITLE11=Chocolate Genius - Julia
TTITLE12=Heather Nova - We Can Work It Out
TTITLE13=Howie Day - Help!
TTITLE14=Paul Westerberg - Nowhere Man
TTITLE15=Grandaddy - Revolution
TTITLE16=Nick Cave - Let It Be
EXTD=YEAR: 2001 ID3G: 24
EXTT0=
EXTT1=
EXTT2=
EXTT3=
EXTT4=
EXTT5=
EXTT6=
EXTT7=
EXTT8=
EXTT9=
EXTT10=
EXTT11=
EXTT12=
EXTT13=
EXTT14=
EXTT15=
EXTT16=
PLAYORDER=
